<?xml version="1.0" standalone="no"?>
<!DOCTYPE svg PUBLIC "-//W3C//DTD SVG 20010904//EN"
 "http://www.w3.org/TR/2001/REC-SVG-20010904/DTD/svg10.dtd">
<svg version="1.0" xmlns="http://www.w3.org/2000/svg"
 width="1270.000000pt" height="564.242496pt" viewBox="0 0 1270.000000 564.242496"
 preserveAspectRatio="xMidYMid meet">
<metadata>
Created by potrace 1.12, written by Peter Selinger 2001-2015
</metadata>
<g transform="translate(-85.000000,599.000049) scale(0.100000,-0.100000)"
fill="#0638a8" stroke="none">
<path d="M850 5030 l0 -960 640 0 640 0 0 170 0 170 -460 0 -460 0 0 235 0
235 420 0 420 0 0 165 0 165 -420 0 -420 0 0 225 0 225 460 0 460 0 0 165 0
165 -640 0 -640 0 0 -960z"/>
<path d="M5530 5030 l0 -960 170 0 c155 0 170 2 170 18 0 9 1 441 3 960 l2
942 -172 0 -173 0 0 -960z"/>
<path d="M6289 5977 c-134 -50 -186 -200 -111 -322 33 -54 96 -89 167 -93 76
-5 125 10 172 51 88 77 97 222 20 305 -54 58 -174 87 -248 59z"/>
<path d="M8070 5030 l0 -960 175 0 174 0 3 418 3 417 28 58 c48 97 144 145
270 135 137 -11 216 -89 237 -235 5 -37 10 -231 10 -430 l0 -363 170 0 170 0
0 425 c0 476 -5 521 -65 653 -39 84 -132 183 -205 219 -143 70 -368 70 -502 2
-22 -11 -62 -40 -87 -64 l-46 -43 3 364 2 364 -170 0 -170 0 0 -960z"/>
<path d="M10270 5030 l0 -960 180 0 180 0 2 393 3 392 216 3 216 2 11 48 c17
73 49 152 87 216 19 32 35 60 35 62 0 2 -128 4 -285 4 l-285 0 2 233 3 232
458 3 458 2 -2 165 -1 165 -639 0 -639 0 0 -960z"/>
<path d="M2975 5410 c-93 -20 -156 -51 -222 -114 l-33 -30 0 57 0 57 -165 0
-165 0 0 -655 0 -655 169 0 170 0 4 413 c4 465 3 462 77 539 100 103 293 105
394 5 74 -74 76 -90 76 -553 l0 -404 176 0 175 0 -4 453 c-3 392 -6 460 -21
512 -57 196 -180 325 -351 370 -63 16 -212 19 -280 5z"/>
<path d="M4310 5405 c-140 -39 -282 -145 -354 -264 -81 -134 -119 -320 -99
-479 20 -156 84 -307 168 -394 132 -137 262 -192 455 -190 152 1 271 41 365
124 l35 30 0 -102 c0 -55 -5 -121 -11 -145 -13 -53 -66 -116 -122 -149 -75
-43 -215 -58 -317 -35 -87 20 -160 89 -160 152 l0 27 -180 0 -180 0 5 -27 c2
-16 7 -49 10 -74 22 -175 196 -329 424 -375 119 -23 347 -16 446 16 209 66
351 207 412 410 15 48 17 139 20 753 l4 697 -175 0 -176 0 0 -56 0 -56 -37 29
c-114 88 -190 114 -353 119 -91 3 -140 0 -180 -11z m384 -334 c107 -52 176
-178 176 -320 -1 -229 -142 -373 -354 -359 -137 9 -239 82 -287 206 -32 80
-32 223 -1 303 57 145 186 216 358 198 34 -3 83 -16 108 -28z"/>
<path d="M7174 5406 c-101 -23 -173 -63 -244 -135 -81 -81 -105 -140 -104
-251 2 -106 31 -179 103 -251 68 -67 145 -105 313 -155 182 -53 248 -97 248
-163 0 -72 -65 -113 -178 -113 -111 1 -189 44 -252 140 l-15 23 -140 -66 c-77
-37 -142 -68 -144 -70 -2 -3 4 -25 13 -49 22 -57 95 -139 161 -181 154 -99
407 -128 590 -69 274 89 393 341 275 581 -54 109 -172 194 -338 242 -40 12
-102 30 -139 41 -86 25 -131 52 -139 85 -27 109 172 144 273 48 l35 -32 131
61 c73 33 136 64 141 68 22 21 -99 170 -125 155 -7 -5 -10 -4 -5 3 8 14 -45
46 -124 72 -83 28 -249 36 -336 16z"/>
<path d="M13061 5384 c-57 -20 -97 -50 -127 -94 l-24 -35 0 63 0 62 -291 0
-291 0 49 -38 c294 -233 382 -641 206 -962 -57 -105 -130 -187 -237 -266 l-58
-44 311 0 310 0 3 463 c3 441 4 464 23 496 32 55 69 76 130 76 93 0 145 -60
145 -167 l0 -58 170 0 170 0 0 93 c0 207 -80 352 -224 406 -69 26 -198 28
-265 5z"/>
<path d="M6195 5368 c-3 -7 -4 -301 -3 -653 l3 -640 173 -3 172 -2 0 655 0
655 -170 0 c-127 0 -172 -3 -175 -12z"/>
<path d="M11810 5243 c0 -154 -14 -229 -53 -294 -55 -95 -161 -166 -262 -176
l-55 -6 0 -37 0 -37 55 -6 c116 -12 242 -111 286 -225 18 -47 23 -86 28 -217
l6 -160 47 -1 46 -1 4 166 c3 155 5 170 30 223 54 116 169 203 284 215 l54 6
0 37 0 37 -54 6 c-117 12 -230 96 -282 210 -27 59 -29 71 -32 230 l-4 167 -49
0 -49 0 0 -137z"/>
<path d="M9645 3578 c-142 -50 -186 -232 -83 -344 108 -117 297 -91 370 50 30
59 23 159 -16 214 -53 77 -176 113 -271 80z"/>
<path d="M2650 3315 l0 -145 210 0 210 0 0 -755 0 -755 180 0 180 0 0 755 0
755 205 0 205 0 0 145 0 145 -595 0 -595 0 0 -145z"/>
<path d="M7300 2560 l0 -901 403 3 402 3 80 28 c95 34 134 57 197 115 57 53
99 118 124 192 26 77 27 283 1 356 -40 115 -130 208 -232 240 -30 10 -55 20
-55 23 0 3 20 19 45 36 52 35 106 102 137 171 30 68 37 236 14 318 -25 85 -94
185 -117 170 -7 -4 -9 -3 -5 4 13 21 -116 92 -216 119 -51 13 -132 17 -421 20
l-357 5 0 -902z m686 575 c67 -41 89 -87 89 -185 -1 -97 -28 -151 -99 -195
-48 -29 -54 -30 -183 -33 l-133 -4 0 227 0 227 138 -4 c134 -3 140 -4 188 -33z
m21 -701 c76 -25 119 -59 142 -114 25 -57 27 -154 6 -214 -8 -22 -11 -44 -8
-49 3 -6 1 -7 -5 -3 -6 3 -16 -2 -22 -13 -6 -11 -32 -33 -58 -48 -45 -27 -53
-28 -225 -33 l-177 -5 0 248 0 247 150 0 c110 0 162 -4 197 -16z"/>
<path d="M8763 2703 c3 -642 6 -766 19 -808 52 -172 163 -235 416 -235 l112 0
0 124 0 123 -63 6 c-86 8 -113 22 -131 69 -14 33 -16 131 -16 758 l0 720 -171
0 -170 0 4 -757z"/>
<path d="M12310 3153 l0 -306 -28 39 c-73 100 -171 153 -298 161 -211 14 -370
-106 -449 -337 -37 -108 -48 -221 -42 -419 5 -201 23 -287 84 -411 43 -88 124
-174 198 -210 44 -22 63 -25 165 -25 99 0 122 3 165 23 74 34 121 70 164 123
l38 48 7 -52 c3 -29 6 -69 6 -89 l0 -38 160 0 160 0 0 900 0 900 -165 0 -165
0 0 -307z m-187 -367 c65 -19 100 -47 146 -117 l41 -61 0 -267 0 -267 -30 -47
c-31 -49 -98 -104 -153 -124 -18 -6 -55 -12 -83 -12 -90 -2 -146 54 -187 183
-20 64 -22 92 -22 276 0 165 3 216 17 260 49 156 140 216 271 176z"/>
<path d="M4016 3410 c1 -16 2 -417 3 -890 l1 -860 165 0 165 0 0 489 0 488 55
52 c71 67 132 94 209 94 72 -1 101 -20 136 -89 l25 -49 3 -492 3 -493 165 0
164 0 0 513 c0 399 -3 527 -14 578 -40 187 -152 288 -331 297 -147 8 -245 -30
-354 -138 l-61 -60 0 240 c0 184 -3 241 -12 244 -7 2 -47 11 -88 21 -61 14
-146 45 -225 81 -6 2 -9 -9 -9 -26z"/>
<path d="M5775 3035 c-246 -54 -394 -254 -426 -578 -12 -125 -1 -285 26 -393
54 -207 189 -353 375 -403 100 -27 282 -30 385 -6 172 40 288 147 335 309 l19
66 -174 0 c-171 0 -174 0 -180 -22 -12 -39 -53 -93 -87 -113 -49 -28 -159 -27
-216 3 -79 42 -134 159 -149 316 l-6 64 404 0 404 0 3 114 c4 173 -33 324
-106 431 -76 109 -195 190 -320 216 -70 15 -212 13 -287 -4z m240 -234 c82
-38 132 -123 142 -241 l6 -70 -243 0 -243 0 7 53 c22 176 110 277 241 277 28
0 68 -9 90 -19z"/>
<path d="M10774 3036 c-88 -20 -139 -49 -215 -125 l-67 -66 -6 44 c-3 24 -6
66 -6 92 l0 49 -160 0 -160 0 0 -685 0 -685 165 0 165 0 0 483 0 484 60 57
c80 76 133 99 218 94 59 -4 67 -7 97 -40 52 -56 55 -89 55 -608 l0 -470 165 0
166 0 -3 548 c-3 505 -5 551 -22 597 -27 71 -80 148 -124 178 -83 58 -214 79
-328 53z"/>
<path d="M2065 2857 c-1 -154 -3 -178 -23 -227 -30 -73 -81 -142 -135 -179
-50 -34 -152 -71 -197 -71 -28 0 -30 -2 -30 -39 l0 -39 55 -7 c114 -14 238
-104 290 -209 34 -69 46 -146 45 -291 -1 -66 -1 -125 -1 -131 1 -6 23 -10 54
-10 l52 1 5 180 c5 179 5 181 38 247 58 118 167 196 299 214 48 6 49 6 50 44
l2 37 -55 6 c-105 11 -219 83 -278 177 -47 73 -56 122 -56 302 l0 168 -57 0
-58 0 0 -173z"/>
<path d="M9560 2310 l0 -650 170 0 170 0 0 650 0 650 -170 0 -170 0 0 -650z"/>
<path d="M3075 1207 c-31 -55 -31 -57 3 -57 20 1 36 13 65 50 l38 50 -40 0
c-37 0 -42 -4 -66 -43z"/>
<path d="M9705 1220 c-9 -17 -13 -35 -10 -41 4 -5 1 -8 -6 -7 -6 2 -14 -3 -16
-9 -3 -9 5 -13 24 -13 20 0 37 11 59 38 50 61 50 62 5 62 -35 0 -43 -4 -56
-30z"/>
<path d="M2850 1140 l-55 -49 41 -1 c31 0 46 6 64 25 13 14 27 25 31 25 4 0
21 -11 37 -25 21 -17 42 -25 68 -25 l39 1 -35 30 c-54 46 -73 57 -105 63 -25
5 -38 -2 -85 -44z"/>
<path d="M9472 1141 l-55 -46 38 -3 c29 -3 43 2 64 22 34 32 42 32 71 1 18
-19 34 -25 64 -25 l41 0 -50 44 c-72 64 -102 65 -173 7z"/>
<path d="M4235 1035 c-54 -21 -109 -77 -136 -139 -28 -66 -30 -190 -4 -256 67
-167 276 -215 396 -90 48 49 69 105 69 185 l0 35 -110 0 -110 0 0 -35 0 -35
69 0 69 0 -8 -36 c-15 -66 -69 -104 -148 -104 -100 0 -162 78 -162 205 0 128
62 205 163 205 60 0 110 -27 129 -70 11 -27 18 -30 55 -30 24 0 43 5 43 10 0
17 -30 73 -54 98 -54 61 -180 88 -261 57z"/>
<path d="M1725 1005 l0 -35 88 0 87 0 0 -240 0 -240 40 0 40 0 0 240 0 240 85
0 85 0 0 35 0 35 -213 0 -213 0 1 -35z"/>
<path d="M2400 765 l0 -275 40 0 40 0 0 275 0 275 -40 0 -40 0 0 -275z"/>
<path d="M2760 765 l0 -275 175 0 175 0 0 35 0 35 -135 0 -135 0 0 85 0 85
125 0 125 0 0 35 0 35 -125 0 -125 0 0 85 0 85 135 0 135 0 0 35 0 35 -175 0
-175 0 0 -275z"/>
<path d="M3370 766 l0 -276 40 0 40 0 0 200 c0 110 3 200 8 200 4 -1 68 -90
143 -198 l135 -197 42 -3 42 -3 0 275 0 276 -43 0 -44 0 -2 -197 c-1 -109 -3
-198 -4 -199 -1 -1 -63 86 -138 194 l-136 197 -42 3 -41 3 0 -275z"/>
<path d="M5231 777 c-51 -144 -96 -268 -98 -274 -4 -9 8 -13 40 -13 l46 0 22
70 23 70 111 0 111 0 23 -70 22 -70 45 0 c25 0 44 4 42 9 -1 5 -46 129 -98
275 l-95 266 -50 0 -50 0 -94 -263z m183 57 c19 -54 37 -107 41 -116 6 -16 -1
-18 -80 -18 -66 0 -86 3 -82 13 2 6 21 60 42 120 21 59 40 106 42 104 2 -2 18
-49 37 -103z"/>
<path d="M5858 765 l-3 -275 42 0 43 0 2 201 3 200 139 -200 140 -201 38 0 38
0 0 275 0 275 -40 0 -40 0 0 -207 0 -207 -142 207 c-142 205 -143 206 -180
207 l-37 0 -3 -275z"/>
<path d="M6580 765 l0 -275 40 0 40 0 0 120 0 120 140 0 140 0 0 -120 0 -120
40 0 40 0 0 275 0 275 -40 0 -40 0 0 -120 0 -120 -140 0 -140 0 0 120 0 120
-40 0 -40 0 0 -275z"/>
<path d="M7650 765 l0 -275 40 0 40 0 0 85 c0 80 2 86 31 120 17 19 35 32 40
29 5 -3 46 -57 91 -120 l82 -114 48 0 c37 0 47 3 42 13 -4 6 -52 72 -106 145
-54 73 -98 137 -98 144 0 9 52 70 189 221 l25 27 -55 -1 -54 0 -110 -129 c-60
-71 -113 -129 -117 -129 -5 -1 -8 58 -8 129 l0 130 -40 0 -40 0 0 -275z"/>
<path d="M8310 765 l0 -275 40 0 40 0 0 120 0 120 140 0 140 0 0 -120 0 -120
40 0 40 0 0 275 0 275 -40 0 -40 0 0 -120 0 -120 -140 0 -140 0 0 120 0 120
-40 0 -40 0 0 -275z"/>
<path d="M9020 765 l0 -275 45 0 45 0 0 275 0 275 -45 0 -45 0 0 -275z"/>
<path d="M9380 765 l0 -275 175 0 175 0 0 35 0 35 -132 0 -133 0 3 85 3 85
120 0 119 0 0 35 0 35 -122 0 -123 0 3 85 3 85 130 0 129 0 0 35 0 35 -175 0
-175 0 0 -275z"/>
<path d="M9990 765 l0 -275 40 0 40 0 2 202 3 203 72 -175 c40 -96 77 -187 82
-202 9 -23 17 -28 44 -28 l34 0 71 173 c39 94 77 186 84 202 11 26 13 4 16
-172 l2 -203 40 0 40 0 0 275 0 275 -53 0 -53 0 -89 -216 c-81 -198 -89 -214
-100 -193 -7 13 -48 111 -91 217 l-78 192 -53 0 -53 0 0 -275z"/>
<path d="M11160 1005 l0 -35 85 0 85 0 0 -240 0 -240 40 0 40 0 0 240 0 240
88 0 88 0 -4 35 -4 35 -209 0 -209 0 0 -35z"/>
<path d="M11830 765 l0 -275 45 0 45 0 0 120 0 120 135 0 135 0 0 -120 0 -120
45 0 45 0 0 275 0 275 -45 0 -45 0 0 -120 0 -120 -135 0 -135 0 0 120 0 120
-45 0 -45 0 0 -275z"/>
<path d="M12550 765 l0 -275 40 0 40 0 0 275 0 275 -40 0 -40 0 0 -275z"/>
<path d="M12556 421 c-23 -25 -17 -52 14 -68 30 -15 63 2 68 36 7 48 -49 69
-82 32z"/>
</g>
</svg>
